<svg width="825" height="825" xmlns="http://www.w3.org/2000/svg" xmlns:xlink="http://www.w3.org/1999/xlink" overflow="hidden"><defs><clipPath id="clip0"><rect x="229" y="67" width="825" height="825"/></clipPath></defs><g clip-path="url(#clip0)" transform="translate(-229 -67)"><path d="M230 204.169C230 128.413 291.413 67 367.169 67L915.831 67C991.587 67 1053 128.413 1053 204.169L1053 753.831C1053 829.587 991.587 891 915.831 891L367.169 891C291.413 891 230 829.587 230 753.831Z" fill="#FFFFFF" fill-rule="evenodd"/><path d="M810 382C810 373.163 817.163 366 826 366 834.837 366 842 373.163 842 382 842 390.837 834.837 398 826 398 817.163 398 810 390.837 810 382Z" fill="#FFFFFF" fill-rule="evenodd"/><path d="M942 383C942 374.163 949.387 367 958.5 367 967.613 367 975 374.163 975 383 975 391.837 967.613 399 958.5 399 949.387 399 942 391.837 942 383Z" fill="#FFFFFF" fill-rule="evenodd"/><path d="M267 346.5C267 299.832 304.832 262 351.5 262 398.168 262 436 299.832 436 346.5 436 393.168 398.168 431 351.5 431 304.832 431 267 393.168 267 346.5Z" fill="#00CC66" fill-rule="evenodd"/><path d="M492.933 325C504.988 325 514.761 334.75 514.761 346.777L514.761 384.685 514.747 384.824 514.789 386.596C515.413 389.91 517.622 392.895 520.962 394.716 524.713 396.76 529.363 397.043 533.396 395.471 538.06 393.652 541.15 389.65 541.363 385.15L541.391 385.151 541.344 384.685 541.344 346.777C541.344 334.75 551.116 325 563.172 325 575.227 325 585 334.75 585 346.777L585 384.685 584.791 386.757 584.959 386.763C584.157 407.191 571.821 425.526 552.875 434.449 534.541 443.084 512.854 441.563 495.99 430.458 480.653 420.359 471.468 403.766 471 386.087L471.105 383.744 471.105 346.777C471.105 334.75 480.877 325 492.933 325Z" fill="#00CC66" fill-rule="evenodd"/><path d="M625 371.214C637.15 371.214 647 380.902 647 392.852L647 418.362C647 430.312 637.15 440 625 440 612.85 440 603 430.312 603 418.362L603 392.852C603 380.902 612.85 371.214 625 371.214ZM625 325C637.15 325 647 334.707 647 346.681 647 358.655 637.15 368.362 625 368.362 612.85 368.362 603 358.655 603 346.681 603 334.707 612.85 325 625 325Z" fill="#00CC66" fill-rule="evenodd"/><path d="M685.98 325C691.774 325 697.019 327.332 700.816 331.103L702.546 333.652 721.682 326.657C732.974 322.529 745.497 328.274 749.653 339.489 753.809 350.704 748.025 363.142 736.733 367.269L712.628 376.081 706.961 376.951 706.961 419.163C706.961 430.671 697.567 440 685.98 440L685.98 440C674.393 440 665 430.671 665 419.163L665 345.837C665 334.329 674.393 325 685.98 325Z" fill="#00CC66" fill-rule="evenodd"/><path d="M826.927 372.551C824.791 372.421 822.62 372.743 820.604 373.529 815.94 375.348 812.85 379.35 812.637 383.85L812.609 383.849 812.656 384.315 812.656 392.352 839.239 392.352 839.239 384.315 839.253 384.176 839.211 382.404C838.587 379.09 836.378 376.105 833.038 374.284 831.162 373.262 829.062 372.68 826.927 372.551ZM822.734 329.091C835.046 328.405 847.47 331.602 858.01 338.542 873.347 348.641 882.532 365.234 883 382.913L882.895 385.256 882.895 422.223C882.895 434.25 873.123 444 861.067 444 849.012 444 839.239 434.25 839.239 422.223L839.239 411.805 812.656 411.805 812.656 422.223C812.656 434.25 802.884 444 790.828 444 778.773 444 769 434.25 769 422.223L769 384.315 769.209 382.243 769.041 382.237C769.843 361.809 782.179 343.474 801.125 334.551 808 331.313 815.347 329.503 822.734 329.091Z" fill="#00CC66" fill-rule="evenodd"/><path d="M958.927 370.551C956.791 370.421 954.62 370.743 952.604 371.529 947.94 373.348 944.85 377.35 944.637 381.85L944.609 381.849 944.656 382.315 944.656 390.352 971.239 390.352 971.239 382.315 971.253 382.176 971.211 380.404C970.587 377.09 968.378 374.105 965.038 372.284 963.162 371.262 961.062 370.68 958.927 370.551ZM954.734 327.091C967.046 326.405 979.47 329.602 990.01 336.542 1005.35 346.641 1014.53 363.234 1015 380.913L1014.9 383.256 1014.9 420.223C1014.9 432.25 1005.12 442 993.067 442 981.012 442 971.239 432.25 971.239 420.223L971.239 409.805 944.656 409.805 944.656 420.223C944.656 432.25 934.884 442 922.828 442 910.773 442 901 432.25 901 420.223L901 382.315 901.209 380.243 901.041 380.237C901.843 359.809 914.179 341.474 933.125 332.551 940 329.313 947.347 327.503 954.734 327.091Z" fill="#00CC66" fill-rule="evenodd"/><path d="M847 590.5C847 543.832 884.832 506 931.5 506 978.168 506 1016 543.832 1016 590.5 1016 637.168 978.168 675 931.5 675 884.832 675 847 637.168 847 590.5Z" fill="#00CC66" fill-rule="evenodd"/><path d="M880 590C880 561.281 903.057 538 931.5 538 959.943 538 983 561.281 983 590 983 618.719 959.943 642 931.5 642 903.057 642 880 618.719 880 590Z" fill="#FFFFFF" fill-rule="evenodd"/><path d="M926 551.5C926 548.462 928.462 546 931.5 546L931.5 546C934.538 546 937 548.462 937 551.5L937 589.5C937 592.538 934.538 595 931.5 595L931.5 595C928.462 595 926 592.538 926 589.5Z" fill="#002060" fill-rule="evenodd"/><path d="M961 584C964.314 584 967 586.686 967 590L967 590C967 593.314 964.314 596 961 596L932 596C928.686 596 926 593.314 926 590L926 590C926 586.686 928.686 584 932 584Z" fill="#002060" fill-rule="evenodd"/><path d="M663 658.5C663 649.387 670.387 642 679.5 642L920.5 642C929.613 642 937 649.387 937 658.5L937 658.5C937 667.613 929.613 675 920.5 675L679.5 675C670.387 675 663 667.613 663 658.5Z" fill="#00CC66" fill-rule="evenodd"/><path d="M623.715 709.776C617.596 703.156 618.001 692.83 624.621 686.71L664.683 649.677C671.303 643.558 681.63 643.963 687.749 650.583L687.749 650.583C693.868 657.203 693.463 667.53 686.843 673.649L646.781 710.682C640.161 716.802 629.834 716.396 623.715 709.776Z" fill="#00CC66" fill-rule="evenodd"/><path d="M603.5 644C594.387 644 587 636.613 587 627.5L587 523.5C587 514.387 594.387 507 603.5 507L603.5 507C612.613 507 620 514.387 620 523.5L620 627.5C620 636.613 612.613 644 603.5 644Z" fill="#00CC66" fill-rule="evenodd"/><path d="M554 600.5C554 609.613 546.613 617 537.5 617L490.5 617C481.387 617 474 609.613 474 600.5L474 600.5C474 591.387 481.387 584 490.5 584L537.5 584C546.613 584 554 591.387 554 600.5Z" fill="#00CC66" fill-rule="evenodd"/><path d="M554 658.5C554 667.613 546.613 675 537.5 675L443.5 675C434.387 675 427 667.613 427 658.5L427 658.5C427 649.387 434.387 642 443.5 642L537.5 642C546.613 642 554 649.387 554 658.5Z" fill="#00CC66" fill-rule="evenodd"/><path d="M505.878 672.799C483.705 679.618 460.859 665.547 454.85 641.371 449.114 618.291 460.798 594.121 481.551 586.136L490.922 616.021C485.599 619.376 483.109 627.917 485.36 635.098 487.492 641.898 493.148 645.101 498.335 642.448Z" fill="#00CC66" fill-rule="evenodd"/><path d="M977 476C977 484.837 969.837 492 961 492L913 492C904.163 492 897 484.837 897 476L897 476C897 467.163 904.163 460 913 460L961 460C969.837 460 977 467.163 977 476Z" fill="#00CC66" fill-rule="evenodd"/><path d="M267 590.5C267 543.832 304.832 506 351.5 506 398.168 506 436 543.832 436 590.5 436 637.168 398.168 675 351.5 675 304.832 675 267 637.168 267 590.5Z" fill="#00CC66" fill-rule="evenodd"/><path d="M300 591C300 562.281 323.057 539 351.5 539 379.943 539 403 562.281 403 591 403 619.719 379.943 643 351.5 643 323.057 643 300 619.719 300 591Z" fill="#FFFFFF" fill-rule="evenodd"/><path d="M397 476.5C397 485.613 389.613 493 380.5 493L333.5 493C324.387 493 317 485.613 317 476.5L317 476.5C317 467.387 324.387 460 333.5 460L380.5 460C389.613 460 397 467.387 397 476.5Z" fill="#00CC66" fill-rule="evenodd"/><path d="M0 28.4092C-1.25175e-14 12.7192 12.7192 0 28.4092 0L69.911 0C85.601-6.25873e-15 98.3202 12.7192 98.3202 28.4092L98.3201 28.4092C98.3201 44.0991 85.6009 56.8184 69.9109 56.8184L28.4092 56.8183C12.7192 56.8183 0 44.099 0 28.4091Z" fill="#00CC66" fill-rule="evenodd" transform="matrix(-0.648996 -0.760792 -0.760792 0.648996 450.737 419.605)"/><path d="M407.481 381.642C410.128 384.745 409.759 389.406 406.656 392.053L387.394 408.484C384.291 411.131 379.63 410.761 376.983 407.659L376.983 407.659C374.336 404.556 374.706 399.895 377.808 397.248L397.071 380.816C400.174 378.169 404.835 378.539 407.481 381.642Z" fill="#FFFFFF" fill-rule="evenodd"/><path d="M418.735 394.834C421.382 397.937 421.012 402.598 417.91 405.245L398.647 421.677C395.545 424.323 390.884 423.954 388.237 420.851L388.237 420.851C385.59 417.748 385.959 413.087 389.062 410.44L408.324 394.009C411.427 391.362 416.088 391.731 418.735 394.834Z" fill="#FFFFFF" fill-rule="evenodd"/><path d="M421.46 411.823C423.195 413.856 422.952 416.911 420.919 418.645L411.406 426.76C409.373 428.495 406.318 428.253 404.584 426.219L404.584 426.219C402.849 424.186 403.091 421.131 405.125 419.397L414.638 411.282C416.671 409.547 419.726 409.789 421.46 411.823Z" fill="#FFFFFF" fill-rule="evenodd"/><path d="M309.02 375.589C293.495 351.499 300.439 319.384 324.53 303.859 348.62 288.334 380.735 295.278 396.26 319.369 411.784 343.459 404.84 375.574 380.75 391.099 356.659 406.624 324.545 399.68 309.02 375.589Z" fill="#FFFFFF" fill-rule="evenodd"/></g></svg>