<?xml version="1.0" encoding="iso-8859-1"?>
<!-- Generator: Adobe Illustrator 19.0.0, SVG Export Plug-In . SVG Version: 6.00 Build 0)  -->
<svg version="1.1" id="Layer_1" xmlns="http://www.w3.org/2000/svg" xmlns:xlink="http://www.w3.org/1999/xlink" x="0px" y="0px"
	 viewBox="0 0 512.002 512.002" style="enable-background:new 0 0 512.002 512.002;" xml:space="preserve">
<g>
	<g>
		<path d="M289.336,279.127c-3.432-2.673-8.378-2.059-11.051,1.371c-4.162,5.341-12.912,8.792-22.293,8.792
			c-9.274,0-17.982-3.397-22.186-8.655c-2.715-3.396-7.67-3.95-11.067-1.234c-3.396,2.715-3.949,7.67-1.234,11.068
			c7.294,9.122,20.186,14.569,34.486,14.569c14.27,0,27.572-5.693,34.715-14.86C293.381,286.748,292.766,281.8,289.336,279.127z"/>
	</g>
</g>
<g>
	<g>
		<circle cx="139.979" cy="202.805" r="7.381"/>
	</g>
</g>
<g>
	<g>
		<path d="M351.661,159.22c-6.819-4.433-18.614-7.078-31.554-7.078c-13.113,0-24.997,2.706-31.792,7.236
			c-3.618,2.413-4.595,7.302-2.183,10.92c1.519,2.276,4.016,3.507,6.56,3.507c1.501,0,3.018-0.428,4.361-1.324
			c3.426-2.284,11.884-4.59,23.055-4.59c11.05,0,19.499,2.277,22.971,4.534c3.645,2.37,8.524,1.335,10.892-2.311
			C356.342,166.467,355.307,161.59,351.661,159.22z"/>
	</g>
</g>
<g>
	<g>
		<path d="M223.814,159.378c-6.794-4.53-18.679-7.236-31.792-7.236c-12.94,0-24.736,2.647-31.554,7.079
			c-3.646,2.37-4.68,7.247-2.31,10.893c2.371,3.645,7.248,4.678,10.893,2.31c3.472-2.257,11.92-4.534,22.97-4.534
			c11.172,0,19.629,2.306,23.055,4.59c1.343,0.896,2.86,1.324,4.361,1.324c2.544,0,5.04-1.23,6.559-3.507
			C228.409,166.68,227.433,161.791,223.814,159.378z"/>
	</g>
</g>
<g>
	<g>
		<circle cx="313.009" cy="215.551" r="10.615"/>
	</g>
</g>
<g>
	<g>
		<circle cx="198.972" cy="215.551" r="10.615"/>
	</g>
</g>
<g>
	<g>
		<path d="M339.921,326.651c3.442,2.658,8.385,2.023,11.046-1.418c11.479-14.861,19.138-31.79,22.69-49.829
			c27.821-7.671,42.351-34.024,40.369-56.734c-0.666-7.627-3.101-14.215-6.946-19.449c6.829-32.371,11.726-85.789-19.416-117.34
			c12.544-17.48,15.141-33.165,15.254-33.88c0.423-2.691-0.574-5.41-2.638-7.187c-2.064-1.778-4.901-2.363-7.499-1.549
			c-11.174,3.509-23.128,4.886-34.559,3.984c-15.295-1.205-27.968-9.935-41.385-19.176C304.833,15.805,292.42,7.256,277.28,3.539
			c-27.671-6.794-58.176-3.716-83.691,8.443c-3.925,1.871-5.592,6.57-3.721,10.496c1.87,3.925,6.567,5.593,10.496,3.721
			c22.291-10.623,48.959-13.307,73.161-7.366c12.338,3.029,23.044,10.402,34.378,18.209c14.539,10.013,29.572,20.366,49.079,21.906
			c8.697,0.686,17.636,0.251,26.411-1.256c-0.664,0.113-3.089,6.349-3.555,7.183c-1.677,3.004-3.544,5.9-5.583,8.67
			c-7.706,10.465-17.898,18.979-29.279,25.194c-9.52,5.198-19.824,8.825-30.377,11.261c-10.823,2.498-22.025,4.592-33.175,3.591
			c-10.535-0.946-20.674-4.565-30.571-8.094c-12.576-4.484-25.154-9.127-38.407-11.175c-6.671-1.031-13.445-1.37-20.177-0.804
			c-6.268,0.526-12.371,1.889-18.338,3.848c-1.036,0.34-12.797,4.92-12.566,5.472c-8.485-20.338-3.219-42.75,14.609-60.033
			c3.122-3.027,3.2-8.012,0.173-11.134c-3.028-3.123-8.013-3.2-11.134-0.173c-11.242,10.898-18.526,23.454-21.695,36.548
			c-36.544,18.763-50.704,62.024-40.055,122.552c-1.698,3.723-2.652,7.854-2.652,12.207c0,1.262,0.088,2.502,0.243,3.722
			c-4.882,11.864-3.891,27.05,2.784,40.363c7.088,14.138,19.557,24.286,34.707,28.494c8.319,41.873,38.503,75.962,78.109,89.83
			v21.783c-6.755,1.045-13.383,2.664-19.803,4.843c-0.009,0.003-0.02,0.005-0.03,0.008l-1.075,0.373
			c-47.449,16.632-79.328,61.604-79.328,111.908c0,4.349,3.525,7.874,7.874,7.874h263.801c4.349,0,7.874-3.526,7.874-7.874
			c0-50.305-31.884-95.276-79.341-111.907c-6.758-2.369-13.76-4.118-20.896-5.225V365.24c11.093-3.873,21.625-9.382,31.308-16.48
			c3.508-2.571,4.266-7.499,1.696-11.006c-2.57-3.507-7.499-4.266-11.006-1.695c-9.802,7.186-20.603,12.506-32.018,15.869
			c-0.025,0.007-0.05,0.01-0.075,0.018c-34.26,10.074-72.192,1.483-98.781-22.267c-18.126-16.19-30.264-38.569-33.767-62.634
			c-0.237-1.629-0.436-3.265-0.595-4.904c-0.038-0.389-0.07-4.325-0.324-4.442c5.393,2.488,11.342,3.77,17.28,3.77
			c0,0,27.612,0,27.615,0c13.675,0,27.031-7.159,34.558-18.583c5.674-8.611,6.756-18.743,8.509-28.647
			c3.854-3.665,9.84-5.886,16.138-5.886c6.286,0,12.09,2.107,15.96,5.71l0.113,0.638c0,0,2.228,12.589,2.228,12.592
			c3.429,19.379,21.093,34.175,40.756,34.175h27.615c2.695,0,5.436-0.142,8.059-0.804c0.665-0.168,6.26-2.062,6.307-1.753
			l1.717,10.05c-2.756,16.929-9.638,32.817-20.318,46.643C335.845,319.047,336.48,323.992,339.921,326.651z M320.037,411.88
			c0.087-0.374,0.185-0.743,0.265-1.118c33.719,15.566,56.563,48.353,59.413,85.492H132.267c2.878-37.5,26.136-70.563,60.373-85.936
			c4.557,22.135,21.078,41.06,42.516,48.324c6.877,2.331,14.099,3.56,21.362,3.56c19.126-0.001,37.324-9.049,49.588-23.246
			C312.769,431.242,317.68,422.008,320.037,411.88z M232.203,393.949v-24.4c15.642,3.157,31.931,3.153,47.578,0.017v24.382
			c0,4.063,3.092,7.459,7.137,7.839c6.252,0.588,12.415,1.738,18.395,3.429c-0.042,0.252-0.083,0.504-0.128,0.755
			c-2.02,11.061-7.965,21.386-16.532,28.668c-8.9,7.564-20.455,11.814-32.137,11.814c-9.148,0-18.473-2.626-26.232-7.469
			c-7.312-4.565-13.333-11.025-17.415-18.613c-2.461-4.573-4.17-9.581-5.069-14.695c-0.044-0.247-0.082-0.497-0.122-0.745
			c5.654-1.534,11.478-2.587,17.386-3.141C229.109,401.41,232.203,398.013,232.203,393.949z M375.781,257.935
			c0.096-1.981,0.16-3.968,0.16-5.966c0,0,0-7.166,0-7.169c0.005-1.335,1.47-2.409,2.193-3.386
			c5.678-7.663,6.158-18.619,7.77-27.738c0.623-3.517,0.555-7.193-0.201-10.685c-0.029-0.136-0.054-0.276-0.085-0.413
			c5.534,1.673,11.726,6.11,12.717,17.458C399.401,232.256,392.842,250.094,375.781,257.935z M370.424,100.393
			c2.272-1.906,4.463-3.908,6.562-6.001c0.146-0.146,0.302-0.281,0.448-0.427c10.636,11.376,16.86,27.537,18.527,48.163
			c1.324,16.381-0.455,32.973-2.833,46.33c-5.345-2.129-11.152-2.827-16.87-2.499c-0.107,0.006-0.211,0.003-0.318,0.01v-17.427
			c0-16.129-3.261-32.249-9.609-47.081c-1.933-4.514-4.144-8.93-6.615-13.174C363.443,105.88,367.025,103.245,370.424,100.393z
			 M117.902,128.652c3.645-18.036,11.616-31.78,23.757-41.027c0.539,7.699,2.483,15.392,5.855,22.869
			c0.107,0.238,0.219,0.476,0.33,0.714c0.344,0.742,0.701,1.481,1.074,2.217c0.087,0.174,0.164,0.351,0.253,0.524
			c-8.599,16.822-13.127,35.7-13.127,54.591c0,0,0,4.732,0,4.737c-2.178-0.19-4.5-0.056-6.686,0.015
			c-1.225,0.039-12.518,1.422-12.317,3.059C115.278,161.92,114.66,144.698,117.902,128.652z M117.718,239.831
			c-1.992-3.974-3.281-8.199-3.847-12.332c0.065,0.472,2.529,1.489,2.97,1.708c2.264,1.131,4.671,1.955,7.143,2.47
			c1.779,0.372,3.592,0.584,5.409,0.636c0.107,0.003,0.212,0.015,0.319,0.016c0.006,0.022,0.015,0.043,0.022,0.065
			c0.161,0.517,0.332,1.027,0.511,1.533c0.01,0.028,0.019,0.058,0.029,0.086c1.395,3.919,3.353,7.542,5.769,10.787
			c0,3.393-0.067,6.794,0.039,10.186c0.006,0.242-0.058,2.861,0.109,2.939C125.79,253.109,120.301,244.982,117.718,239.831z
			 M135.986,216.585c-2.679,0-5.475,0.215-8.127-0.202c-4.777-0.752-8.924-4.266-10.621-8.77c-0.566-1.503-0.88-3.178-0.88-4.808
			c0-2.526,0.695-4.888,1.887-6.926c0.005-0.009,0.013-0.018,0.019-0.027c1.865-3.184,5.003-5.503,8.569-6.421
			c1.069-0.275,2.201-0.405,3.305-0.405c0.001,0.001,19.686,0.001,19.714,0.002c2.093,0.004,4.236,0.514,6.107,1.454
			c4.617,2.32,7.645,7.142,7.645,12.323c0,7.598-6.182,13.78-13.78,13.78H135.986z M224.784,210.947
			c-0.236,4.578-1.902,9.238-2.674,13.6c-2.171,12.269-12.79,21.173-25.248,21.173c-15.503,0-35.434,4.472-46.993-8.859
			c-1.211-1.396-2.254-2.918-3.131-4.527h3.087c16.281,0,29.528-13.246,29.528-29.528c0-0.329-0.014-0.655-0.025-0.982
			c-0.056-1.68-0.244-3.326-0.569-4.924c0,0,33.976,0,33.996,0c5.331,0,10.17,3.719,11.545,8.861
			C224.756,207.464,224.873,209.199,224.784,210.947z M278.006,191.052c-1.482,1.768-2.714,3.696-3.699,5.725
			c-5.457-2.691-11.741-4.174-18.244-4.174c-6.562,0-12.883,1.503-18.362,4.23c-0.99-2.051-2.23-3.997-3.727-5.782
			c-5.276-6.291-13.011-9.899-21.222-9.899c0,0-42.845,0-42.853,0c-0.3,0-1.269-1.083-1.513-1.281
			c-1.783-1.443-3.811-2.727-5.915-3.73c-3.277-1.563-6.817-2.501-10.436-2.771c-0.083-0.006-0.164-0.022-0.246-0.026v-4.803h0.002
			c0-8.629,1.104-17.384,3.232-25.744c2.062-8.104,5.108-15.968,9.054-23.341c0.189-0.117,0.379-0.239,0.568-0.354
			c9.04-5.497,19.259-9.194,29.855-9.941c9.969-0.702,19.914,1.087,29.456,3.867c6.372,1.856,12.615,4.103,18.866,6.323
			c15.394,5.469,31.231,11.272,47.856,10.05c0.019-0.001,0.037-0.003,0.056-0.005c9.819-0.722,19.607-2.157,29.179-4.48
			c2.157-0.523,26.321-8.457,25.997-9.01c0.148,0.252,0.307,0.5,0.451,0.752c0.021,0.037,0.041,0.073,0.062,0.11
			c6.807,11.849,11.238,25.076,12.932,38.636c0.161,1.287,1.414,25.791,0.825,25.791c-0.458-0.025-0.919-0.037-1.381-0.04
			c-0.058,0-0.115-0.004-0.173-0.004h-59.401C291.017,181.152,283.282,184.76,278.006,191.052z M351.261,244.253
			c-2.728,0.954-5.634,1.466-8.525,1.468h-27.615c-2.336,0-4.607-0.313-6.77-0.903c-9.373-2.554-16.714-10.302-18.478-20.27
			l-2.409-13.616c-0.617-3.488,0.334-7.046,2.61-9.76s5.614-4.271,9.156-4.271c0,0,59.4,0,59.429,0.001
			c2.925,0.006,5.787,1.119,7.956,3.077c0.048,0.044,0.1,0.083,0.148,0.127c2.542,2.373,3.965,5.906,3.791,9.41
			c-0.023,0.474-0.076,0.946-0.159,1.415l-2.41,13.616C366.395,233.538,359.897,241.233,351.261,244.253z"/>
	</g>
</g>
<g>
</g>
<g>
</g>
<g>
</g>
<g>
</g>
<g>
</g>
<g>
</g>
<g>
</g>
<g>
</g>
<g>
</g>
<g>
</g>
<g>
</g>
<g>
</g>
<g>
</g>
<g>
</g>
<g>
</g>
</svg>
