<svg width="749" height="200" xmlns="http://www.w3.org/2000/svg" xmlns:xlink="http://www.w3.org/1999/xlink" overflow="hidden"><defs><clipPath id="clip0"><rect x="291" y="346" width="749" height="200"/></clipPath></defs><g clip-path="url(#clip0)" transform="translate(-291 -346)"><path d="M394.226 463.438C407.725 455.44 425.151 459.9 433.148 473.399L450.365 502.46C458.362 515.959 453.902 533.385 440.403 541.382L440.403 541.382C426.904 549.379 409.478 544.919 401.481 531.421L384.264 502.359C376.267 488.861 380.727 471.435 394.226 463.438Z" fill="#00CC66" fill-rule="evenodd"/><path d="M291 431.5C291 384.832 328.832 347 375.5 347 422.168 347 460 384.832 460 431.5 460 478.168 422.168 516 375.5 516 328.832 516 291 478.168 291 431.5Z" fill="#00CC66" fill-rule="evenodd"/><path d="M324 431.5C324 403.057 347.281 380 376 380 404.719 380 428 403.057 428 431.5 428 459.943 404.719 483 376 483 347.281 483 324 459.943 324 431.5Z" fill="#FFFFFF" fill-rule="evenodd"/><path d="M389.849 494.444C387.904 490.859 389.232 486.376 392.816 484.431L415.068 472.351C418.652 470.406 423.135 471.734 425.081 475.318L425.081 475.318C427.026 478.903 425.698 483.386 422.114 485.331L399.862 497.411C396.278 499.356 391.795 498.028 389.849 494.444Z" fill="#FFFFFF" fill-rule="evenodd"/><path d="M398.243 509.369C396.298 505.784 397.626 501.301 401.21 499.356L423.462 487.276C427.046 485.331 431.529 486.659 433.475 490.243L433.475 490.243C435.421 493.827 434.092 498.311 430.508 500.256L408.256 512.336C404.672 514.281 400.189 512.953 398.243 509.369Z" fill="#FFFFFF" fill-rule="evenodd"/><path d="M413.789 517.714C412.514 515.366 413.384 512.428 415.733 511.153L426.723 505.187C429.071 503.912 432.009 504.782 433.284 507.131L433.284 507.131C434.559 509.48 433.689 512.418 431.34 513.693L420.351 519.659C418.002 520.934 415.064 520.063 413.789 517.714Z" fill="#FFFFFF" fill-rule="evenodd"/><path d="M516.933 409C528.988 409 538.761 418.75 538.761 430.777L538.761 468.685 538.747 468.824 538.789 470.596C539.413 473.91 541.622 476.895 544.962 478.716 548.713 480.76 553.363 481.043 557.396 479.471 562.06 477.652 565.15 473.65 565.363 469.15L565.391 469.151 565.344 468.685 565.344 430.777C565.344 418.75 575.116 409 587.172 409 599.227 409 609 418.75 609 430.777L609 468.685 608.791 470.757 608.959 470.763C608.157 491.191 595.821 509.526 576.875 518.449 558.541 527.084 536.854 525.563 519.99 514.458 504.653 504.359 495.468 487.766 495 470.087L495.105 467.744 495.105 430.777C495.105 418.75 504.877 409 516.933 409Z" fill="#00CC66" fill-rule="evenodd"/><path d="M649 455.214C661.15 455.214 671 464.902 671 476.852L671 502.362C671 514.312 661.15 524 649 524 636.85 524 627 514.312 627 502.362L627 476.852C627 464.902 636.85 455.214 649 455.214ZM649 409C661.15 409 671 418.707 671 430.681 671 442.655 661.15 452.362 649 452.362 636.85 452.362 627 442.655 627 430.681 627 418.707 636.85 409 649 409Z" fill="#00CC66" fill-rule="evenodd"/><path d="M709.98 409C715.774 409 721.019 411.332 724.816 415.103L726.546 417.652 745.682 410.657C756.974 406.529 769.497 412.274 773.653 423.489 777.809 434.704 772.025 447.142 760.733 451.269L736.628 460.081 730.961 460.951 730.961 503.163C730.961 514.671 721.567 524 709.98 524L709.98 524C698.393 524 689 514.671 689 503.163L689 429.837C689 418.329 698.393 409 709.98 409Z" fill="#00CC66" fill-rule="evenodd"/><path d="M850.927 456.551C848.791 456.421 846.62 456.743 844.604 457.529 839.94 459.348 836.85 463.35 836.637 467.85L836.609 467.849 836.656 468.315 836.656 476.352 863.239 476.352 863.239 468.315 863.253 468.176 863.211 466.404C862.587 463.09 860.378 460.105 857.038 458.284 855.162 457.262 853.062 456.68 850.927 456.551ZM846.734 413.091C859.046 412.405 871.47 415.602 882.01 422.542 897.347 432.641 906.532 449.234 907 466.913L906.895 469.256 906.895 506.223C906.895 518.25 897.123 528 885.067 528 873.012 528 863.239 518.25 863.239 506.223L863.239 495.805 836.656 495.805 836.656 506.223C836.656 518.25 826.884 528 814.828 528 802.773 528 793 518.25 793 506.223L793 468.315 793.209 466.243 793.041 466.237C793.843 445.809 806.179 427.474 825.125 418.551 832 415.313 839.347 413.503 846.734 413.091Z" fill="#00CC66" fill-rule="evenodd"/><path d="M983.927 454.929C981.791 454.799 979.62 455.124 977.604 455.917 972.94 457.751 969.85 461.788 969.637 466.327L969.609 466.326 969.656 466.796 969.656 474.903 996.239 474.903 996.239 466.796 996.253 466.655 996.211 464.868C995.587 461.526 993.378 458.515 990.038 456.678 988.162 455.647 986.062 455.06 983.927 454.929ZM979.734 411.092C992.046 410.4 1004.47 413.624 1015.01 420.625 1030.35 430.812 1039.53 447.549 1040 465.381L1039.9 467.745 1039.9 505.034C1039.9 517.165 1030.12 527 1018.07 527 1006.01 527 996.239 517.165 996.239 505.034L996.239 494.525 969.656 494.525 969.656 505.034C969.656 517.165 959.884 527 947.828 527 935.773 527 926 517.165 926 505.034L926 466.796 926.209 464.706 926.041 464.7C926.843 444.094 939.179 425.6 958.125 416.599 965 413.333 972.347 411.507 979.734 411.092Z" fill="#00CC66" fill-rule="evenodd"/></g></svg>