<svg width="247" height="247" xmlns="http://www.w3.org/2000/svg" xmlns:xlink="http://www.w3.org/1999/xlink" overflow="hidden"><defs><clipPath id="clip0"><rect x="397" y="238" width="247" height="247"/></clipPath></defs><g clip-path="url(#clip0)" transform="translate(-397 -238)"><path d="M397 361.5C397 293.845 452.069 239 520 239 587.931 239 643 293.845 643 361.5 643 429.155 587.931 484 520 484 452.069 484 397 429.155 397 361.5Z" fill="#002060" fill-rule="evenodd"/><path d="M478 349.5C478 326.028 496.804 307 520 307 543.196 307 562 326.028 562 349.5 562 372.972 543.196 392 520 392 496.804 392 478 372.972 478 349.5Z" stroke="#FFFFFF" stroke-width="8" stroke-miterlimit="8" fill="none" fill-rule="evenodd"/><path d="M455.051 465.542C460.502 429.604 494.055 404.89 529.993 410.341 562.343 415.247 586.176 443.173 585.937 475.892" stroke="#FFFFFF" stroke-width="8" stroke-miterlimit="8" fill="none" fill-rule="evenodd"/></g></svg>