<svg width="292" height="292" xmlns="http://www.w3.org/2000/svg" xmlns:xlink="http://www.w3.org/1999/xlink" overflow="hidden"><defs><clipPath id="clip0"><rect x="1101" y="69" width="292" height="292"/></clipPath></defs><g clip-path="url(#clip0)" transform="translate(-1101 -69)"><path d="M1102 214.5C1102 134.143 1167.14 69 1247.5 69 1327.86 69 1393 134.143 1393 214.5 1393 294.857 1327.86 360 1247.5 360 1167.14 360 1102 294.857 1102 214.5Z" fill="#00CC66" fill-rule="evenodd"/><path d="M1219 122 1219 144.333 1175.73 144.333 1175.73 189 1152 189 1152 122Z" fill="#FFFFFF" fill-rule="evenodd"/><path d="M1152 240 1174.33 240 1174.33 283.271 1219 283.271 1219 307 1152 307Z" fill="#FFFFFF" fill-rule="evenodd"/><path d="M1342 189 1320 189 1320 145.375 1276 145.375 1276 122 1342 122Z" fill="#FFFFFF" fill-rule="evenodd"/><path d="M1276 307 1276 285 1318.63 285 1318.63 240 1342 240 1342 307Z" fill="#FFFFFF" fill-rule="evenodd"/><rect x="1152" y="205" width="190" height="19" fill="#FFFFFF"/></g></svg>